<?xml version="1.0"?>
<svg xmlns="http://www.w3.org/2000/svg" id="Outline" viewBox="0 0 512 512" width="512" height="512"><path d="M256,248a48,48,0,1,0-48-48A48.055,48.055,0,0,0,256,248Zm0-80a32,32,0,1,1-32,32A32.036,32.036,0,0,1,256,168Z"/><path d="M256,208h8a8,8,0,0,0,0-16v-8a8,8,0,0,0-16,0v16A8,8,0,0,0,256,208Z"/><path d="M320,304V272a8,8,0,0,0-8-8H200a8,8,0,0,0-8,8v32a8,8,0,0,0,8,8H312A8,8,0,0,0,320,304Zm-16-8H208V280h96Z"/><path d="M72,264h64a8,8,0,0,0,0-16V192a8,8,0,0,0-8-8H80a8,8,0,0,0-8,8v56a8,8,0,0,0,0,16Zm16-64h32v48H88Z"/><path d="M136,344V288a8,8,0,0,0-8-8H80a8,8,0,0,0-8,8v56a8,8,0,0,0,0,16h64a8,8,0,0,0,0-16ZM88,296h32v48H88Z"/><path d="M136,440V384a8,8,0,0,0-8-8H80a8,8,0,0,0-8,8v56a8,8,0,0,0,0,16h64a8,8,0,0,0,0-16ZM88,392h32v48H88Z"/><path d="M376,264h64a8,8,0,0,0,0-16V192a8,8,0,0,0-8-8H384a8,8,0,0,0-8,8v56a8,8,0,0,0,0,16Zm16-64h32v48H392Z"/><path d="M376,360h64a8,8,0,0,0,0-16V288a8,8,0,0,0-8-8H384a8,8,0,0,0-8,8v56a8,8,0,0,0,0,16Zm16-64h32v48H392Z"/><path d="M376,456h64a8,8,0,0,0,0-16V384a8,8,0,0,0-8-8H384a8,8,0,0,0-8,8v56a8,8,0,0,0,0,16Zm16-64h32v48H392Z"/><path d="M488,160a8,8,0,0,0,0-16H346.6L264,83.926V65.444l38.685,6.447A8,8,0,0,0,312,64V32a8,8,0,0,0-6.685-7.891l-48-8v.008A7.954,7.954,0,0,0,248,24V83.926L165.4,144H24a8,8,0,0,0,0,16h8V480H24a8,8,0,0,0,0,16H488a8,8,0,0,0,0-16h-8V160ZM248,480H216V392a40.067,40.067,0,0,1,32-39.195Zm16-127.195A40.067,40.067,0,0,1,296,392v88H264ZM256,336a56.064,56.064,0,0,0-56,56v88H176V156.074l80-58.182,80,58.182V480H312V392A56.064,56.064,0,0,0,256,336ZM296,54.556l-32-5.333V33.444l32,5.333ZM48,160H160V480H48ZM464,480H352V160H464Z"/></svg>
