<svg id="Layer_1" enable-background="new 0 0 512 512" height="512" viewBox="0 0 512 512" width="512" xmlns="http://www.w3.org/2000/svg"><g><g><path d="m255.846 94.564c-8.294 0-15.019-6.725-15.019-15.02v-64.525c0-8.295 6.725-15.02 15.019-15.02h96.997c8.295 0 15.02 6.725 15.02 15.02s-6.725 15.02-15.02 15.02h-81.978v49.506c0 8.296-6.724 15.019-15.019 15.019z" fill="#4a696f"/></g><g><g><path d="m352.843 30.039h-112.016c0-7.848 0-6.725 0-15.02s6.725-15.019 15.019-15.019h96.997c8.295 0 15.02 6.725 15.02 15.02s-6.725 15.019-15.02 15.019z" fill="#1930dc"/></g></g><path d="m151.359 512h-138.036c-7.125 0-12.901-5.776-12.901-12.9v-276.354c0-7.125 5.777-12.901 12.901-12.901h138.036z" fill="#ffbd00"/><path d="m498.677 512h-138.036v-302.156h138.036c7.125 0 12.9 5.777 12.9 12.901v276.353c0 7.125-5.775 12.902-12.9 12.902z" fill="#ff8b00"/><path d="m347.076 93.231c7.511 0 13.599 6.089 13.599 13.599v50.768 354.402" fill="#ffda2d"/><path d="m360.641 512h-209.282v-286.722 286.722-355.209-49.961c0-7.511 6.088-13.599 13.599-13.599h182.118" fill="#ffda2d"/><path d="m86.08 342.471h-21.208c-3.046 0-5.515-2.47-5.515-5.516v-68.621c0-3.046 2.469-5.516 5.515-5.516h21.209c3.046 0 5.515 2.47 5.515 5.516v68.621c0 3.047-2.469 5.516-5.516 5.516z" fill="#ccf7ff"/><path d="m86.08 458.929h-21.208c-3.046 0-5.515-2.469-5.515-5.515v-68.622c0-3.046 2.469-5.515 5.515-5.515h21.209c3.046 0 5.515 2.469 5.515 5.515v68.622c0 3.047-2.469 5.515-5.516 5.515z" fill="#ccf7ff"/><path d="m445.909 342.471h-21.21c-3.046 0-5.515-2.47-5.515-5.516v-68.621c0-3.046 2.469-5.516 5.515-5.516h21.21c3.046 0 5.515 2.47 5.515 5.516v68.621c0 3.047-2.469 5.516-5.515 5.516z" fill="#80eaff"/><path d="m445.909 458.929h-21.21c-3.046 0-5.515-2.469-5.515-5.515v-68.622c0-3.046 2.469-5.515 5.515-5.515h21.21c3.046 0 5.515 2.469 5.515 5.515v68.622c0 3.047-2.469 5.515-5.515 5.515z" fill="#80eaff"/><path d="m255.269 93.231v418.769h105.407v-405.17c0-7.511-6.089-13.599-13.599-13.599z" fill="#ffbd00"/><path d="m255.788 338.217c-30.279 0-54.824 24.541-54.824 54.82v118.963h109.65s0-89.219 0-118.959c0-30.28-24.546-54.824-54.826-54.824z" fill="#4a696f"/><path d="m255.788 338.217c-.174 0-.346.011-.521.013v173.77h55.346s0-89.219 0-118.959c.001-30.28-24.545-54.824-54.825-54.824z" fill="#293939"/><path d="m304.344 232.655c0 27.147-22.006 49.155-49.153 49.155s-49.154-22.008-49.154-49.155c0-27.146 22.007-49.153 49.154-49.153s49.153 22.008 49.153 49.153z" fill="#e6fbff"/><path d="m255.269 183.506v98.305c27.11-.043 49.076-22.032 49.076-49.153-.001-27.12-21.966-49.11-49.076-49.152z" fill="#ccf7ff"/><path d="m422.358 113.714-162.674-48.579c-.01-.003-3.684-1.589-8.792-.06l-162.871 48.639c-7.948 2.374-12.467 10.741-10.094 18.689 1.945 6.516 7.917 10.726 14.385 10.726 1.423 0 2.871-.204 4.304-.632l158.574-47.354 158.572 47.354c1.435.428 2.88.632 4.304.632 6.468 0 12.44-4.211 14.386-10.726 2.373-7.948-2.145-16.315-10.094-18.689z" fill="#ff4b00"/><path d="m422.358 113.714-162.674-48.579c-.01-.003-1.809-.725-4.415-.725v30.755l158.494 47.331c1.435.428 2.88.632 4.304.632 6.468 0 12.44-4.211 14.386-10.726 2.372-7.947-2.146-16.314-10.095-18.688z" fill="#f80000"/></g></svg>