<svg id="Layer_1" enable-background="new 0 0 512.597 512.597" height="512" viewBox="0 0 512.597 512.597" width="512" xmlns="http://www.w3.org/2000/svg"><g><path d="m255.534 295.04c33.846 0 61.381-27.536 61.381-61.382 0-33.845-27.535-61.38-61.381-61.38s-61.381 27.535-61.381 61.38c0 33.846 27.535 61.382 61.381 61.382zm0-92.762c17.304 0 31.381 14.077 31.381 31.38 0 17.304-14.077 31.382-31.381 31.382s-31.381-14.078-31.381-31.382c0-17.303 14.077-31.38 31.381-31.38z"/><path d="m87.882 262.121h-19.404c-3.042 0-5.508 2.466-5.508 5.508v64.142c0 3.042 2.466 5.508 5.508 5.508h19.404c3.042 0 5.508-2.466 5.508-5.508v-64.142c.001-3.042-2.465-5.508-5.508-5.508z"/><path d="m87.882 372.009h-19.404c-3.042 0-5.508 2.466-5.508 5.508v64.142c0 3.042 2.466 5.508 5.508 5.508h19.404c3.042 0 5.508-2.466 5.508-5.508v-64.142c.001-3.042-2.465-5.508-5.508-5.508z"/><path d="m424.714 337.28h19.404c3.042 0 5.508-2.466 5.508-5.508v-64.142c0-3.042-2.466-5.508-5.508-5.508h-19.405c-3.042 0-5.508 2.466-5.508 5.508v64.142c.001 3.041 2.467 5.508 5.509 5.508z"/><path d="m424.714 447.168h19.404c3.042 0 5.508-2.466 5.508-5.508v-64.142c0-3.042-2.466-5.508-5.508-5.508h-19.405c-3.042 0-5.508 2.466-5.508 5.508v64.142c.001 3.042 2.467 5.508 5.509 5.508z"/><path d="m497.597 197.135h-111.36v-63.158l29.342 8.762c19.488 4.832 26.781-22.784 8.584-28.746l-151.952-45.377v-38.264h81.87c8.284 0 15-6.716 15-15s-6.716-15-15-15h-96.87c-8.284 0-15 6.716-15 15v53.263l-151.953 45.379c-18.915 6.836-10.181 33.618 8.584 28.746l27.517-8.218v62.613h-111.359c-8.284 0-15 6.716-15 15v285.109c0 8.284 6.716 15 15 15h356.198c.006 0 .013-.001.019-.001s.013.001.019.001h126.36c8.284 0 15-6.716 15-15v-285.109c.001-8.284-6.715-15-14.999-15zm-240.387-101.689 99.026 29.573v357.226h-33.405v-97.248c0-36.796-29.937-66.731-66.733-66.731-36.795 0-66.731 29.934-66.731 66.727v97.253h-33.007v-270.111c0-.007-.001-.013-.001-.019v-86.553zm-227.21 131.689h96.359v255.109h-96.359zm189.367 255.109v-97.253c0-20.251 16.478-36.727 36.731-36.727 20.254 0 36.733 16.478 36.733 36.731v97.248h-73.464zm263.23 0h-96.36v-255.109h96.36z"/></g></svg>